# xmcd
#
# Track frame offsets: 
#        152
#        11991
#        26600
#        39966
#        59877
#        71440
#        83431
#        98713
#        111983
#        122945
#        134719
#        146495
#
# Disc length: 2125 seconds
#
# Revision: 0
# Processed by: cddbd v1.5PL3 Copyright (c) Steve Scherf et al.
# Submitted via: ExactAudioCopy v0.95a5
#
DISCID=ac084b0c
DTITLE=The Bluegrass Prophets - Once More For Jesus
DYEAR=2003
DGENRE=Bluegrass
TTITLE0=I Found A Way
TTITLE1=Going Home
TTITLE2=Let Me Tell You About Jesus
TTITLE3=Lord I Want To Go To Heaven
TTITLE4=Daniel Prayed
TTITLE5=Come To Dine
TTITLE6=Medals For Mother
TTITLE7=I'm Living On The Hallelujah Side
TTITLE8=Just A Little Talk With Jesus
TTITLE9=Once More I'll Sing For Jesus
TTITLE10=Hallelujah I'm Ready
TTITLE11=What A Day That Will Be
EXTD=
EXTT0=
EXTT1=
EXTT2=
EXTT3=
EXTT4=
EXTT5=
EXTT6=
EXTT7=
EXTT8=
EXTT9=
EXTT10=
EXTT11=
PLAYORDER=
